<svg width="27" height="25" viewBox="0 0 27 25" fill="none" xmlns="http://www.w3.org/2000/svg">
<path d="M3.05855 2.80921L7.14276 15.0632L3.89671 22.3684H10.5263H18.4211H23.6842V19.7368H7.94605L9.4079 16.4474H22.6586L26.8257 3.94737H6.21119L4.8954 0H0V2.63158H2.85066L3.05855 2.80921Z" fill="white"/>
<path d="M10.5264 25C11.253 25 11.8421 24.4109 11.8421 23.6842C11.8421 22.9575 11.253 22.3684 10.5263 22.3684C9.79963 22.3684 9.21056 22.9575 9.21056 23.6842C9.21056 24.4109 9.79966 25 10.5264 25Z" fill="white"/>
<path d="M18.421 25C19.1477 25 19.7368 24.4109 19.7368 23.6842C19.7368 22.9575 19.1477 22.3684 18.4211 22.3684C17.6944 22.3684 17.1053 22.9575 17.1053 23.6842C17.1053 24.4109 17.6944 25 18.421 25Z" fill="white"/>
</svg>
