<svg width="764" height="257" viewBox="0 0 764 257" fill="none" xmlns="http://www.w3.org/2000/svg">
<path d="M5.68 78V56.43H23.68C24.34 56.43 24.94 56.6 25.48 56.94C26.04 57.26 26.48 57.69 26.8 58.23C27.12 58.77 27.28 59.37 27.28 60.03V66.36C27.28 67.02 27.12 67.62 26.8 68.16C26.48 68.7 26.04 69.14 25.48 69.48C24.94 69.8 24.34 69.96 23.68 69.96H8.11V78H5.68ZM9.28 67.5H23.68C24 67.5 24.27 67.39 24.49 67.17C24.73 66.95 24.85 66.68 24.85 66.36V60.03C24.85 59.71 24.73 59.44 24.49 59.22C24.27 58.98 24 58.86 23.68 58.86H9.28C8.96 58.86 8.68 58.98 8.44 59.22C8.22 59.44 8.11 59.71 8.11 60.03V66.36C8.11 66.68 8.22 66.95 8.44 67.17C8.68 67.39 8.96 67.5 9.28 67.5ZM36.7905 78V64.23C36.7905 63.57 36.9505 62.97 37.2705 62.43C37.6105 61.87 38.0505 61.43 38.5905 61.11C39.1505 60.77 39.7605 60.6 40.4205 60.6H50.2005V63.06H40.4205C40.1005 63.06 39.8205 63.18 39.5805 63.42C39.3605 63.64 39.2505 63.91 39.2505 64.23V78H36.7905ZM63.0955 78C62.4355 78 61.8255 77.84 61.2655 77.52C60.7255 77.18 60.2855 76.74 59.9455 76.2C59.6255 75.64 59.4655 75.03 59.4655 74.37V64.23C59.4655 63.57 59.6255 62.97 59.9455 62.43C60.2855 61.87 60.7255 61.43 61.2655 61.11C61.8255 60.77 62.4355 60.6 63.0955 60.6H73.5355C74.2155 60.6 74.8255 60.77 75.3655 61.11C75.9255 61.43 76.3655 61.87 76.6855 62.43C77.0255 62.97 77.1955 63.57 77.1955 64.23V74.37C77.1955 75.03 77.0255 75.64 76.6855 76.2C76.3655 76.74 75.9255 77.18 75.3655 77.52C74.8255 77.84 74.2155 78 73.5355 78H63.0955ZM63.0955 75.54H73.5355C73.8555 75.54 74.1255 75.43 74.3455 75.21C74.5855 74.97 74.7055 74.69 74.7055 74.37V64.23C74.7055 63.91 74.5855 63.64 74.3455 63.42C74.1255 63.18 73.8555 63.06 73.5355 63.06H63.0955C62.7755 63.06 62.4955 63.18 62.2555 63.42C62.0355 63.64 61.9255 63.91 61.9255 64.23V74.37C61.9255 74.69 62.0355 74.97 62.2555 75.21C62.4955 75.43 62.7755 75.54 63.0955 75.54ZM80.597 85.29V82.8H87.947C88.267 82.8 88.537 82.68 88.757 82.44C88.997 82.22 89.117 81.95 89.117 81.63V60.6H91.607V81.63C91.607 82.31 91.437 82.92 91.097 83.46C90.777 84.02 90.337 84.46 89.777 84.78C89.237 85.12 88.627 85.29 87.947 85.29H80.597ZM89.117 57.36V54.9H91.607V57.36H89.117ZM105.459 78C104.799 78 104.189 77.84 103.629 77.52C103.089 77.18 102.649 76.74 102.309 76.2C101.989 75.64 101.829 75.03 101.829 74.37V64.23C101.829 63.57 101.989 62.97 102.309 62.43C102.649 61.87 103.089 61.43 103.629 61.11C104.189 60.77 104.799 60.6 105.459 60.6H115.899C116.579 60.6 117.189 60.77 117.729 61.11C118.289 61.43 118.729 61.87 119.049 62.43C119.389 62.97 119.559 63.57 119.559 64.23V70.53H104.289V74.37C104.289 74.69 104.399 74.97 104.619 75.21C104.859 75.43 105.139 75.54 105.459 75.54H119.559V78H105.459ZM104.289 68.07H117.069V64.23C117.069 63.91 116.949 63.64 116.709 63.42C116.489 63.18 116.219 63.06 115.899 63.06H105.459C105.139 63.06 104.859 63.18 104.619 63.42C104.399 63.64 104.289 63.91 104.289 64.23V68.07ZM133.144 78C132.484 78 131.874 77.84 131.314 77.52C130.774 77.18 130.334 76.74 129.994 76.2C129.674 75.64 129.514 75.03 129.514 74.37V64.23C129.514 63.57 129.674 62.97 129.994 62.43C130.334 61.87 130.774 61.43 131.314 61.11C131.874 60.77 132.484 60.6 133.144 60.6H147.184V63.06H133.144C132.824 63.06 132.544 63.18 132.304 63.42C132.084 63.64 131.974 63.91 131.974 64.23V74.37C131.974 74.69 132.084 74.97 132.304 75.21C132.544 75.43 132.824 75.54 133.144 75.54H147.244V78H133.144ZM160.802 78C160.122 78 159.502 77.84 158.942 77.52C158.402 77.18 157.972 76.74 157.652 76.2C157.332 75.64 157.172 75.03 157.172 74.37V54.9H159.632V60.6H167.162V63.06H159.632V74.37C159.632 74.69 159.742 74.97 159.962 75.21C160.202 75.43 160.482 75.54 160.802 75.54H167.162V78H160.802ZM192.741 78V56.4H196.071L211.911 75.24V56.4H214.341V78H211.011L195.171 59.16V78H192.741ZM228.681 78C228.021 78 227.411 77.84 226.851 77.52C226.311 77.18 225.871 76.74 225.531 76.2C225.211 75.64 225.051 75.03 225.051 74.37V64.23C225.051 63.57 225.211 62.97 225.531 62.43C225.871 61.87 226.311 61.43 226.851 61.11C227.411 60.77 228.021 60.6 228.681 60.6H239.121C239.801 60.6 240.411 60.77 240.951 61.11C241.511 61.43 241.951 61.87 242.271 62.43C242.611 62.97 242.781 63.57 242.781 64.23V74.37C242.781 75.03 242.611 75.64 242.271 76.2C241.951 76.74 241.511 77.18 240.951 77.52C240.411 77.84 239.801 78 239.121 78H228.681ZM228.681 75.54H239.121C239.441 75.54 239.711 75.43 239.931 75.21C240.171 74.97 240.291 74.69 240.291 74.37V64.23C240.291 63.91 240.171 63.64 239.931 63.42C239.711 63.18 239.441 63.06 239.121 63.06H228.681C228.361 63.06 228.081 63.18 227.841 63.42C227.621 63.64 227.511 63.91 227.511 64.23V74.37C227.511 74.69 227.621 74.97 227.841 75.21C228.081 75.43 228.361 75.54 228.681 75.54ZM261.642 78L252.042 60.6H254.922L263.082 75.6L271.242 60.6H274.122L264.492 78H261.642ZM287.803 78C287.143 78 286.533 77.84 285.973 77.52C285.433 77.18 284.993 76.74 284.653 76.2C284.333 75.64 284.173 75.03 284.173 74.37V68.07H299.413V64.23C299.413 63.91 299.293 63.64 299.053 63.42C298.833 63.18 298.563 63.06 298.243 63.06H284.173V60.6H298.243C298.923 60.6 299.533 60.77 300.073 61.11C300.633 61.43 301.073 61.87 301.393 62.43C301.733 62.97 301.903 63.57 301.903 64.23V78H287.803ZM287.803 75.54H299.413V70.53H286.633V74.37C286.633 74.69 286.743 74.97 286.963 75.21C287.203 75.43 287.483 75.54 287.803 75.54Z" fill="#00E1FF"/>
<mask id="path-2-outside-1_51_61" maskUnits="userSpaceOnUse" x="0" y="93" width="740" height="78" fill="black">
<rect fill="white" y="93" width="740" height="78"/>
<path d="M4 108.36V97H99.04V117.64L78.16 114.76V108.36H36.8V141.64H78.16V135.24L99.04 132.36V153H15.92V108.36H4ZM104.606 121V110.6H128.206L149.406 137L166.606 110.6H187.806L150.206 166.6H125.406V156.2H135.806L139.406 151L114.206 121H104.606ZM182.906 107.4V97H212.906V109L264.506 115.4V153H215.306L211.306 149L207.226 153H192.906V107.4H182.906ZM212.906 142.6H244.506V123L212.906 119V142.6ZM271.734 121V110.6H352.534V131.8L301.734 139V142.6H332.534V139L352.534 137V153H281.734V121H271.734ZM301.734 128.68L332.534 124.6V121H301.734V128.68ZM359.703 121V110.6H384.023L388.103 114.6L392.103 110.6H432.503V128.2L412.503 126.2V121H389.703V153H369.703V121H359.703ZM442.138 153V137L462.138 139V142.6H492.938V139L442.138 131.8V110.6H512.938V126.6L492.938 124.6V121H462.138V124.2L512.938 131.4V153H442.138ZM527.372 153V97H547.372V109L598.972 115.4V153H578.972V123L547.372 119V153H527.372ZM670.25 121V110.6H680.25V97H700.25V110.6H719.85V121H700.25V140.2L705.05 142.6H735.85V153H699.85L680.25 143.4V121H670.25Z"/>
</mask>
<path d="M4 108.36V97H99.04V117.64L78.16 114.76V108.36H36.8V141.64H78.16V135.24L99.04 132.36V153H15.92V108.36H4ZM104.606 121V110.6H128.206L149.406 137L166.606 110.6H187.806L150.206 166.6H125.406V156.2H135.806L139.406 151L114.206 121H104.606ZM182.906 107.4V97H212.906V109L264.506 115.4V153H215.306L211.306 149L207.226 153H192.906V107.4H182.906ZM212.906 142.6H244.506V123L212.906 119V142.6ZM271.734 121V110.6H352.534V131.8L301.734 139V142.6H332.534V139L352.534 137V153H281.734V121H271.734ZM301.734 128.68L332.534 124.6V121H301.734V128.68ZM359.703 121V110.6H384.023L388.103 114.6L392.103 110.6H432.503V128.2L412.503 126.2V121H389.703V153H369.703V121H359.703ZM442.138 153V137L462.138 139V142.6H492.938V139L442.138 131.8V110.6H512.938V126.6L492.938 124.6V121H462.138V124.2L512.938 131.4V153H442.138ZM527.372 153V97H547.372V109L598.972 115.4V153H578.972V123L547.372 119V153H527.372ZM670.25 121V110.6H680.25V97H700.25V110.6H719.85V121H700.25V140.2L705.05 142.6H735.85V153H699.85L680.25 143.4V121H670.25Z" fill="url(#paint0_linear_51_61)"/>
<path d="M4 108.36H0V112.36H4V108.36ZM4 97V93H0V97H4ZM99.04 97H103.04V93H99.04V97ZM99.04 117.64L98.4935 121.602L103.04 122.23V117.64H99.04ZM78.16 114.76H74.16V118.246L77.6135 118.722L78.16 114.76ZM78.16 108.36H82.16V104.36H78.16V108.36ZM36.8 108.36V104.36H32.8V108.36H36.8ZM36.8 141.64H32.8V145.64H36.8V141.64ZM78.16 141.64V145.64H82.16V141.64H78.16ZM78.16 135.24L77.6135 131.277L74.16 131.754V135.24H78.16ZM99.04 132.36H103.04V127.77L98.4935 128.397L99.04 132.36ZM99.04 153V157H103.04V153H99.04ZM15.92 153H11.92V157H15.92V153ZM15.92 108.36H19.92V104.36H15.92V108.36ZM4 108.36H8V97H4H0V108.36H4ZM4 97V101H99.04V97V93H4V97ZM99.04 97H95.04V117.64H99.04H103.04V97H99.04ZM99.04 117.64L99.5866 113.677L78.7066 110.797L78.16 114.76L77.6135 118.722L98.4935 121.602L99.04 117.64ZM78.16 114.76H82.16V108.36H78.16H74.16V114.76H78.16ZM78.16 108.36V104.36H36.8V108.36V112.36H78.16V108.36ZM36.8 108.36H32.8V141.64H36.8H40.8V108.36H36.8ZM36.8 141.64V145.64H78.16V141.64V137.64H36.8V141.64ZM78.16 141.64H82.16V135.24H78.16H74.16V141.64H78.16ZM78.16 135.24L78.7066 139.202L99.5866 136.322L99.04 132.36L98.4935 128.397L77.6135 131.277L78.16 135.24ZM99.04 132.36H95.04V153H99.04H103.04V132.36H99.04ZM99.04 153V149H15.92V153V157H99.04V153ZM15.92 153H19.92V108.36H15.92H11.92V153H15.92ZM15.92 108.36V104.36H4V108.36V112.36H15.92V108.36ZM104.606 121H100.606V125H104.606V121ZM104.606 110.6V106.6H100.606V110.6H104.606ZM128.206 110.6L131.325 108.095L130.124 106.6H128.206V110.6ZM149.406 137L146.287 139.505L149.744 143.809L152.758 139.183L149.406 137ZM166.606 110.6V106.6H164.438L163.255 108.416L166.606 110.6ZM187.806 110.6L191.127 112.83L195.31 106.6H187.806V110.6ZM150.206 166.6V170.6H152.339L153.527 168.83L150.206 166.6ZM125.406 166.6H121.406V170.6H125.406V166.6ZM125.406 156.2V152.2H121.406V156.2H125.406ZM135.806 156.2V160.2H137.902L139.095 158.477L135.806 156.2ZM139.406 151L142.695 153.277L144.433 150.766L142.469 148.427L139.406 151ZM114.206 121L117.269 118.427L116.07 117H114.206V121ZM104.606 121H108.606V110.6H104.606H100.606V121H104.606ZM104.606 110.6V114.6H128.206V110.6V106.6H104.606V110.6ZM128.206 110.6L125.087 113.105L146.287 139.505L149.406 137L152.525 134.495L131.325 108.095L128.206 110.6ZM149.406 137L152.758 139.183L169.958 112.783L166.606 110.6L163.255 108.416L146.055 134.816L149.406 137ZM166.606 110.6V114.6H187.806V110.6V106.6H166.606V110.6ZM187.806 110.6L184.485 108.37L146.885 164.37L150.206 166.6L153.527 168.83L191.127 112.83L187.806 110.6ZM150.206 166.6V162.6H125.406V166.6V170.6H150.206V166.6ZM125.406 166.6H129.406V156.2H125.406H121.406V166.6H125.406ZM125.406 156.2V160.2H135.806V156.2V152.2H125.406V156.2ZM135.806 156.2L139.095 158.477L142.695 153.277L139.406 151L136.117 148.723L132.517 153.923L135.806 156.2ZM139.406 151L142.469 148.427L117.269 118.427L114.206 121L111.143 123.573L136.343 153.573L139.406 151ZM114.206 121V117H104.606V121V125H114.206V121ZM182.906 107.4H178.906V111.4H182.906V107.4ZM182.906 97V93H178.906V97H182.906ZM212.906 97H216.906V93H212.906V97ZM212.906 109H208.906V112.534L212.414 112.97L212.906 109ZM264.506 115.4H268.506V111.865L264.999 111.43L264.506 115.4ZM264.506 153V157H268.506V153H264.506ZM215.306 153L212.478 155.828L213.649 157H215.306V153ZM211.306 149L214.135 146.172L211.334 143.371L208.506 146.144L211.306 149ZM207.226 153V157H208.86L210.027 155.856L207.226 153ZM192.906 153H188.906V157H192.906V153ZM192.906 107.4H196.906V103.4H192.906V107.4ZM212.906 142.6H208.906V146.6H212.906V142.6ZM244.506 142.6V146.6H248.506V142.6H244.506ZM244.506 123H248.506V119.474L245.009 119.032L244.506 123ZM212.906 119L213.409 115.032L208.906 114.462V119H212.906ZM182.906 107.4H186.906V97H182.906H178.906V107.4H182.906ZM182.906 97V101H212.906V97V93H182.906V97ZM212.906 97H208.906V109H212.906H216.906V97H212.906ZM212.906 109L212.414 112.97L264.014 119.37L264.506 115.4L264.999 111.43L213.399 105.03L212.906 109ZM264.506 115.4H260.506V153H264.506H268.506V115.4H264.506ZM264.506 153V149H215.306V153V157H264.506V153ZM215.306 153L218.135 150.172L214.135 146.172L211.306 149L208.478 151.828L212.478 155.828L215.306 153ZM211.306 149L208.506 146.144L204.426 150.144L207.226 153L210.027 155.856L214.107 151.856L211.306 149ZM207.226 153V149H192.906V153V157H207.226V153ZM192.906 153H196.906V107.4H192.906H188.906V153H192.906ZM192.906 107.4V103.4H182.906V107.4V111.4H192.906V107.4ZM212.906 142.6V146.6H244.506V142.6V138.6H212.906V142.6ZM244.506 142.6H248.506V123H244.506H240.506V142.6H244.506ZM244.506 123L245.009 119.032L213.409 115.032L212.906 119L212.404 122.968L244.004 126.968L244.506 123ZM212.906 119H208.906V142.6H212.906H216.906V119H212.906ZM271.734 121H267.734V125H271.734V121ZM271.734 110.6V106.6H267.734V110.6H271.734ZM352.534 110.6H356.534V106.6H352.534V110.6ZM352.534 131.8L353.096 135.76L356.534 135.273V131.8H352.534ZM301.734 139L301.173 135.04L297.734 135.527V139H301.734ZM301.734 142.6H297.734V146.6H301.734V142.6ZM332.534 142.6V146.6H336.534V142.6H332.534ZM332.534 139L332.136 135.02L328.534 135.38V139H332.534ZM352.534 137H356.534V132.58L352.136 133.02L352.534 137ZM352.534 153V157H356.534V153H352.534ZM281.734 153H277.734V157H281.734V153ZM281.734 121H285.734V117H281.734V121ZM301.734 128.68H297.734V133.245L302.26 132.645L301.734 128.68ZM332.534 124.6L333.06 128.565L336.534 128.105V124.6H332.534ZM332.534 121H336.534V117H332.534V121ZM301.734 121V117H297.734V121H301.734ZM271.734 121H275.734V110.6H271.734H267.734V121H271.734ZM271.734 110.6V114.6H352.534V110.6V106.6H271.734V110.6ZM352.534 110.6H348.534V131.8H352.534H356.534V110.6H352.534ZM352.534 131.8L351.973 127.84L301.173 135.04L301.734 139L302.296 142.96L353.096 135.76L352.534 131.8ZM301.734 139H297.734V142.6H301.734H305.734V139H301.734ZM301.734 142.6V146.6H332.534V142.6V138.6H301.734V142.6ZM332.534 142.6H336.534V139H332.534H328.534V142.6H332.534ZM332.534 139L332.932 142.98L352.932 140.98L352.534 137L352.136 133.02L332.136 135.02L332.534 139ZM352.534 137H348.534V153H352.534H356.534V137H352.534ZM352.534 153V149H281.734V153V157H352.534V153ZM281.734 153H285.734V121H281.734H277.734V153H281.734ZM281.734 121V117H271.734V121V125H281.734V121ZM301.734 128.68L302.26 132.645L333.06 128.565L332.534 124.6L332.009 120.635L301.209 124.715L301.734 128.68ZM332.534 124.6H336.534V121H332.534H328.534V124.6H332.534ZM332.534 121V117H301.734V121V125H332.534V121ZM301.734 121H297.734V128.68H301.734H305.734V121H301.734ZM359.703 121H355.703V125H359.703V121ZM359.703 110.6V106.6H355.703V110.6H359.703ZM384.023 110.6L386.823 107.744L385.657 106.6H384.023V110.6ZM388.103 114.6L385.303 117.456L388.131 120.229L390.932 117.428L388.103 114.6ZM392.103 110.6V106.6H390.446L389.275 107.772L392.103 110.6ZM432.503 110.6H436.503V106.6H432.503V110.6ZM432.503 128.2L432.105 132.18L436.503 132.62V128.2H432.503ZM412.503 126.2H408.503V129.82L412.105 130.18L412.503 126.2ZM412.503 121H416.503V117H412.503V121ZM389.703 121V117H385.703V121H389.703ZM389.703 153V157H393.703V153H389.703ZM369.703 153H365.703V157H369.703V153ZM369.703 121H373.703V117H369.703V121ZM359.703 121H363.703V110.6H359.703H355.703V121H359.703ZM359.703 110.6V114.6H384.023V110.6V106.6H359.703V110.6ZM384.023 110.6L381.223 113.456L385.303 117.456L388.103 114.6L390.903 111.744L386.823 107.744L384.023 110.6ZM388.103 114.6L390.932 117.428L394.932 113.428L392.103 110.6L389.275 107.772L385.275 111.772L388.103 114.6ZM392.103 110.6V114.6H432.503V110.6V106.6H392.103V110.6ZM432.503 110.6H428.503V128.2H432.503H436.503V110.6H432.503ZM432.503 128.2L432.901 124.22L412.901 122.22L412.503 126.2L412.105 130.18L432.105 132.18L432.503 128.2ZM412.503 126.2H416.503V121H412.503H408.503V126.2H412.503ZM412.503 121V117H389.703V121V125H412.503V121ZM389.703 121H385.703V153H389.703H393.703V121H389.703ZM389.703 153V149H369.703V153V157H389.703V153ZM369.703 153H373.703V121H369.703H365.703V153H369.703ZM369.703 121V117H359.703V121V125H369.703V121ZM442.138 153H438.138V157H442.138V153ZM442.138 137L442.536 133.02L438.138 132.58V137H442.138ZM462.138 139H466.138V135.38L462.536 135.02L462.138 139ZM462.138 142.6H458.138V146.6H462.138V142.6ZM492.938 142.6V146.6H496.938V142.6H492.938ZM492.938 139H496.938V135.527L493.499 135.04L492.938 139ZM442.138 131.8H438.138V135.273L441.576 135.76L442.138 131.8ZM442.138 110.6V106.6H438.138V110.6H442.138ZM512.938 110.6H516.938V106.6H512.938V110.6ZM512.938 126.6L512.539 130.58L516.938 131.02V126.6H512.938ZM492.938 124.6H488.938V128.22L492.539 128.58L492.938 124.6ZM492.938 121H496.938V117H492.938V121ZM462.138 121V117H458.138V121H462.138ZM462.138 124.2H458.138V127.673L461.576 128.16L462.138 124.2ZM512.938 131.4H516.938V127.927L513.499 127.44L512.938 131.4ZM512.938 153V157H516.938V153H512.938ZM442.138 153H446.138V137H442.138H438.138V153H442.138ZM442.138 137L441.739 140.98L461.739 142.98L462.138 139L462.536 135.02L442.536 133.02L442.138 137ZM462.138 139H458.138V142.6H462.138H466.138V139H462.138ZM462.138 142.6V146.6H492.938V142.6V138.6H462.138V142.6ZM492.938 142.6H496.938V139H492.938H488.938V142.6H492.938ZM492.938 139L493.499 135.04L442.699 127.84L442.138 131.8L441.576 135.76L492.376 142.96L492.938 139ZM442.138 131.8H446.138V110.6H442.138H438.138V131.8H442.138ZM442.138 110.6V114.6H512.938V110.6V106.6H442.138V110.6ZM512.938 110.6H508.938V126.6H512.938H516.938V110.6H512.938ZM512.938 126.6L513.336 122.62L493.336 120.62L492.938 124.6L492.539 128.58L512.539 130.58L512.938 126.6ZM492.938 124.6H496.938V121H492.938H488.938V124.6H492.938ZM492.938 121V117H462.138V121V125H492.938V121ZM462.138 121H458.138V124.2H462.138H466.138V121H462.138ZM462.138 124.2L461.576 128.16L512.376 135.36L512.938 131.4L513.499 127.44L462.699 120.24L462.138 124.2ZM512.938 131.4H508.938V153H512.938H516.938V131.4H512.938ZM512.938 153V149H442.138V153V157H512.938V153ZM527.372 153H523.372V157H527.372V153ZM527.372 97V93H523.372V97H527.372ZM547.372 97H551.372V93H547.372V97ZM547.372 109H543.372V112.534L546.88 112.97L547.372 109ZM598.972 115.4H602.972V111.865L599.464 111.43L598.972 115.4ZM598.972 153V157H602.972V153H598.972ZM578.972 153H574.972V157H578.972V153ZM578.972 123H582.972V119.474L579.474 119.032L578.972 123ZM547.372 119L547.874 115.032L543.372 114.462V119H547.372ZM547.372 153V157H551.372V153H547.372ZM527.372 153H531.372V97H527.372H523.372V153H527.372ZM527.372 97V101H547.372V97V93H527.372V97ZM547.372 97H543.372V109H547.372H551.372V97H547.372ZM547.372 109L546.88 112.97L598.48 119.37L598.972 115.4L599.464 111.43L547.864 105.03L547.372 109ZM598.972 115.4H594.972V153H598.972H602.972V115.4H598.972ZM598.972 153V149H578.972V153V157H598.972V153ZM578.972 153H582.972V123H578.972H574.972V153H578.972ZM578.972 123L579.474 119.032L547.874 115.032L547.372 119L546.87 122.968L578.47 126.968L578.972 123ZM547.372 119H543.372V153H547.372H551.372V119H547.372ZM547.372 153V149H527.372V153V157H547.372V153ZM670.25 121H666.25V125H670.25V121ZM670.25 110.6V106.6H666.25V110.6H670.25ZM680.25 110.6V114.6H684.25V110.6H680.25ZM680.25 97V93H676.25V97H680.25ZM700.25 97H704.25V93H700.25V97ZM700.25 110.6H696.25V114.6H700.25V110.6ZM719.85 110.6H723.85V106.6H719.85V110.6ZM719.85 121V125H723.85V121H719.85ZM700.25 121V117H696.25V121H700.25ZM700.25 140.2H696.25V142.672L698.461 143.778L700.25 140.2ZM705.05 142.6L703.261 146.178L704.106 146.6H705.05V142.6ZM735.85 142.6H739.85V138.6H735.85V142.6ZM735.85 153V157H739.85V153H735.85ZM699.85 153L698.091 156.592L698.923 157H699.85V153ZM680.25 143.4H676.25V145.895L678.491 146.992L680.25 143.4ZM680.25 121H684.25V117H680.25V121ZM670.25 121H674.25V110.6H670.25H666.25V121H670.25ZM670.25 110.6V114.6H680.25V110.6V106.6H670.25V110.6ZM680.25 110.6H684.25V97H680.25H676.25V110.6H680.25ZM680.25 97V101H700.25V97V93H680.25V97ZM700.25 97H696.25V110.6H700.25H704.25V97H700.25ZM700.25 110.6V114.6H719.85V110.6V106.6H700.25V110.6ZM719.85 110.6H715.85V121H719.85H723.85V110.6H719.85ZM719.85 121V117H700.25V121V125H719.85V121ZM700.25 121H696.25V140.2H700.25H704.25V121H700.25ZM700.25 140.2L698.461 143.778L703.261 146.178L705.05 142.6L706.839 139.022L702.039 136.622L700.25 140.2ZM705.05 142.6V146.6H735.85V142.6V138.6H705.05V142.6ZM735.85 142.6H731.85V153H735.85H739.85V142.6H735.85ZM735.85 153V149H699.85V153V157H735.85V153ZM699.85 153L701.609 149.408L682.009 139.808L680.25 143.4L678.491 146.992L698.091 156.592L699.85 153ZM680.25 143.4H684.25V121H680.25H676.25V143.4H680.25ZM680.25 121V117H670.25V121V125H680.25V121Z" fill="#333A40" mask="url(#path-2-outside-1_51_61)"/>
<circle cx="636" cy="129" r="17.4" fill="#00E1FF" stroke="#333A40" stroke-width="4.8"/>
<g filter="url(#filter0_dddddd_51_61)">
<circle cx="635.4" cy="128.4" r="15" fill="#00E1FF"/>
</g>
<g filter="url(#filter1_dddddd_51_61)">
<circle cx="635.4" cy="128.4" r="15" fill="#00E1FF"/>
</g>
<g filter="url(#filter2_dddddd_51_61)">
<circle cx="635.4" cy="128.4" r="15" fill="#00E1FF"/>
</g>
<defs>
<filter id="filter0_dddddd_51_61" x="507" y="-7.62939e-06" width="256.8" height="256.8" filterUnits="userSpaceOnUse" color-interpolation-filters="sRGB">
<feFlood flood-opacity="0" result="BackgroundImageFix"/>
<feColorMatrix in="SourceAlpha" type="matrix" values="0 0 0 0 0 0 0 0 0 0 0 0 0 0 0 0 0 0 127 0" result="hardAlpha"/>
<feOffset/>
<feGaussianBlur stdDeviation="1.35"/>
<feColorMatrix type="matrix" values="0 0 0 0 0 0 0 0 0 0.882353 0 0 0 0 1 0 0 0 1 0"/>
<feBlend mode="normal" in2="BackgroundImageFix" result="effect1_dropShadow_51_61"/>
<feColorMatrix in="SourceAlpha" type="matrix" values="0 0 0 0 0 0 0 0 0 0 0 0 0 0 0 0 0 0 127 0" result="hardAlpha"/>
<feOffset/>
<feGaussianBlur stdDeviation="2.7"/>
<feColorMatrix type="matrix" values="0 0 0 0 0 0 0 0 0 0.882353 0 0 0 0 1 0 0 0 1 0"/>
<feBlend mode="normal" in2="effect1_dropShadow_51_61" result="effect2_dropShadow_51_61"/>
<feColorMatrix in="SourceAlpha" type="matrix" values="0 0 0 0 0 0 0 0 0 0 0 0 0 0 0 0 0 0 127 0" result="hardAlpha"/>
<feOffset/>
<feGaussianBlur stdDeviation="9.45"/>
<feColorMatrix type="matrix" values="0 0 0 0 0 0 0 0 0 0.882353 0 0 0 0 1 0 0 0 1 0"/>
<feBlend mode="normal" in2="effect2_dropShadow_51_61" result="effect3_dropShadow_51_61"/>
<feColorMatrix in="SourceAlpha" type="matrix" values="0 0 0 0 0 0 0 0 0 0 0 0 0 0 0 0 0 0 127 0" result="hardAlpha"/>
<feOffset/>
<feGaussianBlur stdDeviation="18.9"/>
<feColorMatrix type="matrix" values="0 0 0 0 0 0 0 0 0 0.882353 0 0 0 0 1 0 0 0 1 0"/>
<feBlend mode="normal" in2="effect3_dropShadow_51_61" result="effect4_dropShadow_51_61"/>
<feColorMatrix in="SourceAlpha" type="matrix" values="0 0 0 0 0 0 0 0 0 0 0 0 0 0 0 0 0 0 127 0" result="hardAlpha"/>
<feOffset/>
<feGaussianBlur stdDeviation="32.4"/>
<feColorMatrix type="matrix" values="0 0 0 0 0 0 0 0 0 0.882353 0 0 0 0 1 0 0 0 1 0"/>
<feBlend mode="normal" in2="effect4_dropShadow_51_61" result="effect5_dropShadow_51_61"/>
<feColorMatrix in="SourceAlpha" type="matrix" values="0 0 0 0 0 0 0 0 0 0 0 0 0 0 0 0 0 0 127 0" result="hardAlpha"/>
<feOffset/>
<feGaussianBlur stdDeviation="56.7"/>
<feColorMatrix type="matrix" values="0 0 0 0 0 0 0 0 0 0.882353 0 0 0 0 1 0 0 0 1 0"/>
<feBlend mode="normal" in2="effect5_dropShadow_51_61" result="effect6_dropShadow_51_61"/>
<feBlend mode="normal" in="SourceGraphic" in2="effect6_dropShadow_51_61" result="shape"/>
</filter>
<filter id="filter1_dddddd_51_61" x="507" y="-7.62939e-06" width="256.8" height="256.8" filterUnits="userSpaceOnUse" color-interpolation-filters="sRGB">
<feFlood flood-opacity="0" result="BackgroundImageFix"/>
<feColorMatrix in="SourceAlpha" type="matrix" values="0 0 0 0 0 0 0 0 0 0 0 0 0 0 0 0 0 0 127 0" result="hardAlpha"/>
<feOffset/>
<feGaussianBlur stdDeviation="1.35"/>
<feColorMatrix type="matrix" values="0 0 0 0 0 0 0 0 0 0.882353 0 0 0 0 1 0 0 0 1 0"/>
<feBlend mode="normal" in2="BackgroundImageFix" result="effect1_dropShadow_51_61"/>
<feColorMatrix in="SourceAlpha" type="matrix" values="0 0 0 0 0 0 0 0 0 0 0 0 0 0 0 0 0 0 127 0" result="hardAlpha"/>
<feOffset/>
<feGaussianBlur stdDeviation="2.7"/>
<feColorMatrix type="matrix" values="0 0 0 0 0 0 0 0 0 0.882353 0 0 0 0 1 0 0 0 1 0"/>
<feBlend mode="normal" in2="effect1_dropShadow_51_61" result="effect2_dropShadow_51_61"/>
<feColorMatrix in="SourceAlpha" type="matrix" values="0 0 0 0 0 0 0 0 0 0 0 0 0 0 0 0 0 0 127 0" result="hardAlpha"/>
<feOffset/>
<feGaussianBlur stdDeviation="9.45"/>
<feColorMatrix type="matrix" values="0 0 0 0 0 0 0 0 0 0.882353 0 0 0 0 1 0 0 0 1 0"/>
<feBlend mode="normal" in2="effect2_dropShadow_51_61" result="effect3_dropShadow_51_61"/>
<feColorMatrix in="SourceAlpha" type="matrix" values="0 0 0 0 0 0 0 0 0 0 0 0 0 0 0 0 0 0 127 0" result="hardAlpha"/>
<feOffset/>
<feGaussianBlur stdDeviation="18.9"/>
<feColorMatrix type="matrix" values="0 0 0 0 0 0 0 0 0 0.882353 0 0 0 0 1 0 0 0 1 0"/>
<feBlend mode="normal" in2="effect3_dropShadow_51_61" result="effect4_dropShadow_51_61"/>
<feColorMatrix in="SourceAlpha" type="matrix" values="0 0 0 0 0 0 0 0 0 0 0 0 0 0 0 0 0 0 127 0" result="hardAlpha"/>
<feOffset/>
<feGaussianBlur stdDeviation="32.4"/>
<feColorMatrix type="matrix" values="0 0 0 0 0 0 0 0 0 0.882353 0 0 0 0 1 0 0 0 1 0"/>
<feBlend mode="normal" in2="effect4_dropShadow_51_61" result="effect5_dropShadow_51_61"/>
<feColorMatrix in="SourceAlpha" type="matrix" values="0 0 0 0 0 0 0 0 0 0 0 0 0 0 0 0 0 0 127 0" result="hardAlpha"/>
<feOffset/>
<feGaussianBlur stdDeviation="56.7"/>
<feColorMatrix type="matrix" values="0 0 0 0 0 0 0 0 0 0.882353 0 0 0 0 1 0 0 0 1 0"/>
<feBlend mode="normal" in2="effect5_dropShadow_51_61" result="effect6_dropShadow_51_61"/>
<feBlend mode="normal" in="SourceGraphic" in2="effect6_dropShadow_51_61" result="shape"/>
</filter>
<filter id="filter2_dddddd_51_61" x="507" y="-7.62939e-06" width="256.8" height="256.8" filterUnits="userSpaceOnUse" color-interpolation-filters="sRGB">
<feFlood flood-opacity="0" result="BackgroundImageFix"/>
<feColorMatrix in="SourceAlpha" type="matrix" values="0 0 0 0 0 0 0 0 0 0 0 0 0 0 0 0 0 0 127 0" result="hardAlpha"/>
<feOffset/>
<feGaussianBlur stdDeviation="1.35"/>
<feColorMatrix type="matrix" values="0 0 0 0 0 0 0 0 0 0.882353 0 0 0 0 1 0 0 0 1 0"/>
<feBlend mode="normal" in2="BackgroundImageFix" result="effect1_dropShadow_51_61"/>
<feColorMatrix in="SourceAlpha" type="matrix" values="0 0 0 0 0 0 0 0 0 0 0 0 0 0 0 0 0 0 127 0" result="hardAlpha"/>
<feOffset/>
<feGaussianBlur stdDeviation="2.7"/>
<feColorMatrix type="matrix" values="0 0 0 0 0 0 0 0 0 0.882353 0 0 0 0 1 0 0 0 1 0"/>
<feBlend mode="normal" in2="effect1_dropShadow_51_61" result="effect2_dropShadow_51_61"/>
<feColorMatrix in="SourceAlpha" type="matrix" values="0 0 0 0 0 0 0 0 0 0 0 0 0 0 0 0 0 0 127 0" result="hardAlpha"/>
<feOffset/>
<feGaussianBlur stdDeviation="9.45"/>
<feColorMatrix type="matrix" values="0 0 0 0 0 0 0 0 0 0.882353 0 0 0 0 1 0 0 0 1 0"/>
<feBlend mode="normal" in2="effect2_dropShadow_51_61" result="effect3_dropShadow_51_61"/>
<feColorMatrix in="SourceAlpha" type="matrix" values="0 0 0 0 0 0 0 0 0 0 0 0 0 0 0 0 0 0 127 0" result="hardAlpha"/>
<feOffset/>
<feGaussianBlur stdDeviation="18.9"/>
<feColorMatrix type="matrix" values="0 0 0 0 0 0 0 0 0 0.882353 0 0 0 0 1 0 0 0 1 0"/>
<feBlend mode="normal" in2="effect3_dropShadow_51_61" result="effect4_dropShadow_51_61"/>
<feColorMatrix in="SourceAlpha" type="matrix" values="0 0 0 0 0 0 0 0 0 0 0 0 0 0 0 0 0 0 127 0" result="hardAlpha"/>
<feOffset/>
<feGaussianBlur stdDeviation="32.4"/>
<feColorMatrix type="matrix" values="0 0 0 0 0 0 0 0 0 0.882353 0 0 0 0 1 0 0 0 1 0"/>
<feBlend mode="normal" in2="effect4_dropShadow_51_61" result="effect5_dropShadow_51_61"/>
<feColorMatrix in="SourceAlpha" type="matrix" values="0 0 0 0 0 0 0 0 0 0 0 0 0 0 0 0 0 0 127 0" result="hardAlpha"/>
<feOffset/>
<feGaussianBlur stdDeviation="56.7"/>
<feColorMatrix type="matrix" values="0 0 0 0 0 0 0 0 0 0.882353 0 0 0 0 1 0 0 0 1 0"/>
<feBlend mode="normal" in2="effect5_dropShadow_51_61" result="effect6_dropShadow_51_61"/>
<feBlend mode="normal" in="SourceGraphic" in2="effect6_dropShadow_51_61" result="shape"/>
</filter>
<linearGradient id="paint0_linear_51_61" x1="183" y1="84" x2="183" y2="174" gradientUnits="userSpaceOnUse">
<stop offset="0.25" stop-color="white"/>
<stop offset="0.38" stop-color="#A8AFB1"/>
<stop offset="0.5" stop-color="#333A40"/>
<stop offset="0.63" stop-color="#A8AFB1"/>
<stop offset="0.75" stop-color="white"/>
</linearGradient>
</defs>
</svg>
