<svg width="740" height="126" viewBox="0 0 740 126" fill="none" xmlns="http://www.w3.org/2000/svg">
<path d="M5.68 30V8.43H23.68C24.34 8.43 24.94 8.6 25.48 8.94C26.04 9.26 26.48 9.69 26.8 10.23C27.12 10.77 27.28 11.37 27.28 12.03V18.36C27.28 19.02 27.12 19.62 26.8 20.16C26.48 20.7 26.04 21.14 25.48 21.48C24.94 21.8 24.34 21.96 23.68 21.96H8.11V30H5.68ZM9.28 19.5H23.68C24 19.5 24.27 19.39 24.49 19.17C24.73 18.95 24.85 18.68 24.85 18.36V12.03C24.85 11.71 24.73 11.44 24.49 11.22C24.27 10.98 24 10.86 23.68 10.86H9.28C8.96 10.86 8.68 10.98 8.44 11.22C8.22 11.44 8.11 11.71 8.11 12.03V18.36C8.11 18.68 8.22 18.95 8.44 19.17C8.68 19.39 8.96 19.5 9.28 19.5ZM36.7905 30V16.23C36.7905 15.57 36.9505 14.97 37.2705 14.43C37.6105 13.87 38.0505 13.43 38.5905 13.11C39.1505 12.77 39.7605 12.6 40.4205 12.6H50.2005V15.06H40.4205C40.1005 15.06 39.8205 15.18 39.5805 15.42C39.3605 15.64 39.2505 15.91 39.2505 16.23V30H36.7905ZM63.0955 30C62.4355 30 61.8255 29.84 61.2655 29.52C60.7255 29.18 60.2855 28.74 59.9455 28.2C59.6255 27.64 59.4655 27.03 59.4655 26.37V16.23C59.4655 15.57 59.6255 14.97 59.9455 14.43C60.2855 13.87 60.7255 13.43 61.2655 13.11C61.8255 12.77 62.4355 12.6 63.0955 12.6H73.5355C74.2155 12.6 74.8255 12.77 75.3655 13.11C75.9255 13.43 76.3655 13.87 76.6855 14.43C77.0255 14.97 77.1955 15.57 77.1955 16.23V26.37C77.1955 27.03 77.0255 27.64 76.6855 28.2C76.3655 28.74 75.9255 29.18 75.3655 29.52C74.8255 29.84 74.2155 30 73.5355 30H63.0955ZM63.0955 27.54H73.5355C73.8555 27.54 74.1255 27.43 74.3455 27.21C74.5855 26.97 74.7055 26.69 74.7055 26.37V16.23C74.7055 15.91 74.5855 15.64 74.3455 15.42C74.1255 15.18 73.8555 15.06 73.5355 15.06H63.0955C62.7755 15.06 62.4955 15.18 62.2555 15.42C62.0355 15.64 61.9255 15.91 61.9255 16.23V26.37C61.9255 26.69 62.0355 26.97 62.2555 27.21C62.4955 27.43 62.7755 27.54 63.0955 27.54ZM80.597 37.29V34.8H87.947C88.267 34.8 88.537 34.68 88.757 34.44C88.997 34.22 89.117 33.95 89.117 33.63V12.6H91.607V33.63C91.607 34.31 91.437 34.92 91.097 35.46C90.777 36.02 90.337 36.46 89.777 36.78C89.237 37.12 88.627 37.29 87.947 37.29H80.597ZM89.117 9.36V6.9H91.607V9.36H89.117ZM105.459 30C104.799 30 104.189 29.84 103.629 29.52C103.089 29.18 102.649 28.74 102.309 28.2C101.989 27.64 101.829 27.03 101.829 26.37V16.23C101.829 15.57 101.989 14.97 102.309 14.43C102.649 13.87 103.089 13.43 103.629 13.11C104.189 12.77 104.799 12.6 105.459 12.6H115.899C116.579 12.6 117.189 12.77 117.729 13.11C118.289 13.43 118.729 13.87 119.049 14.43C119.389 14.97 119.559 15.57 119.559 16.23V22.53H104.289V26.37C104.289 26.69 104.399 26.97 104.619 27.21C104.859 27.43 105.139 27.54 105.459 27.54H119.559V30H105.459ZM104.289 20.07H117.069V16.23C117.069 15.91 116.949 15.64 116.709 15.42C116.489 15.18 116.219 15.06 115.899 15.06H105.459C105.139 15.06 104.859 15.18 104.619 15.42C104.399 15.64 104.289 15.91 104.289 16.23V20.07ZM133.144 30C132.484 30 131.874 29.84 131.314 29.52C130.774 29.18 130.334 28.74 129.994 28.2C129.674 27.64 129.514 27.03 129.514 26.37V16.23C129.514 15.57 129.674 14.97 129.994 14.43C130.334 13.87 130.774 13.43 131.314 13.11C131.874 12.77 132.484 12.6 133.144 12.6H147.184V15.06H133.144C132.824 15.06 132.544 15.18 132.304 15.42C132.084 15.64 131.974 15.91 131.974 16.23V26.37C131.974 26.69 132.084 26.97 132.304 27.21C132.544 27.43 132.824 27.54 133.144 27.54H147.244V30H133.144ZM160.802 30C160.122 30 159.502 29.84 158.942 29.52C158.402 29.18 157.972 28.74 157.652 28.2C157.332 27.64 157.172 27.03 157.172 26.37V6.9H159.632V12.6H167.162V15.06H159.632V26.37C159.632 26.69 159.742 26.97 159.962 27.21C160.202 27.43 160.482 27.54 160.802 27.54H167.162V30H160.802ZM192.741 30V8.4H196.071L211.911 27.24V8.4H214.341V30H211.011L195.171 11.16V30H192.741ZM228.681 30C228.021 30 227.411 29.84 226.851 29.52C226.311 29.18 225.871 28.74 225.531 28.2C225.211 27.64 225.051 27.03 225.051 26.37V16.23C225.051 15.57 225.211 14.97 225.531 14.43C225.871 13.87 226.311 13.43 226.851 13.11C227.411 12.77 228.021 12.6 228.681 12.6H239.121C239.801 12.6 240.411 12.77 240.951 13.11C241.511 13.43 241.951 13.87 242.271 14.43C242.611 14.97 242.781 15.57 242.781 16.23V26.37C242.781 27.03 242.611 27.64 242.271 28.2C241.951 28.74 241.511 29.18 240.951 29.52C240.411 29.84 239.801 30 239.121 30H228.681ZM228.681 27.54H239.121C239.441 27.54 239.711 27.43 239.931 27.21C240.171 26.97 240.291 26.69 240.291 26.37V16.23C240.291 15.91 240.171 15.64 239.931 15.42C239.711 15.18 239.441 15.06 239.121 15.06H228.681C228.361 15.06 228.081 15.18 227.841 15.42C227.621 15.64 227.511 15.91 227.511 16.23V26.37C227.511 26.69 227.621 26.97 227.841 27.21C228.081 27.43 228.361 27.54 228.681 27.54ZM261.642 30L252.042 12.6H254.922L263.082 27.6L271.242 12.6H274.122L264.492 30H261.642ZM287.803 30C287.143 30 286.533 29.84 285.973 29.52C285.433 29.18 284.993 28.74 284.653 28.2C284.333 27.64 284.173 27.03 284.173 26.37V20.07H299.413V16.23C299.413 15.91 299.293 15.64 299.053 15.42C298.833 15.18 298.563 15.06 298.243 15.06H284.173V12.6H298.243C298.923 12.6 299.533 12.77 300.073 13.11C300.633 13.43 301.073 13.87 301.393 14.43C301.733 14.97 301.903 15.57 301.903 16.23V30H287.803ZM287.803 27.54H299.413V22.53H286.633V26.37C286.633 26.69 286.743 26.97 286.963 27.21C287.203 27.43 287.483 27.54 287.803 27.54Z" fill="#00E1FF"/>
<mask id="path-2-outside-1_51_61" maskUnits="userSpaceOnUse" x="0" y="45" width="740" height="78" fill="black">
<rect fill="white" y="45" width="740" height="78"/>
<path d="M4 60.36V49H99.04V69.64L78.16 66.76V60.36H36.8V93.64H78.16V87.24L99.04 84.36V105H15.92V60.36H4ZM104.606 73V62.6H128.206L149.406 89L166.606 62.6H187.806L150.206 118.6H125.406V108.2H135.806L139.406 103L114.206 73H104.606ZM182.906 59.4V49H212.906V61L264.506 67.4V105H215.306L211.306 101L207.226 105H192.906V59.4H182.906ZM212.906 94.6H244.506V75L212.906 71V94.6ZM271.734 73V62.6H352.534V83.8L301.734 91V94.6H332.534V91L352.534 89V105H281.734V73H271.734ZM301.734 80.68L332.534 76.6V73H301.734V80.68ZM359.703 73V62.6H384.023L388.103 66.6L392.103 62.6H432.503V80.2L412.503 78.2V73H389.703V105H369.703V73H359.703ZM442.138 105V89L462.138 91V94.6H492.938V91L442.138 83.8V62.6H512.938V78.6L492.938 76.6V73H462.138V76.2L512.938 83.4V105H442.138ZM527.372 105V49H547.372V61L598.972 67.4V105H578.972V75L547.372 71V105H527.372ZM670.25 73V62.6H680.25V49H700.25V62.6H719.85V73H700.25V92.2L705.05 94.6H735.85V105H699.85L680.25 95.4V73H670.25Z"/>
</mask>
<path d="M4 60.36V49H99.04V69.64L78.16 66.76V60.36H36.8V93.64H78.16V87.24L99.04 84.36V105H15.92V60.36H4ZM104.606 73V62.6H128.206L149.406 89L166.606 62.6H187.806L150.206 118.6H125.406V108.2H135.806L139.406 103L114.206 73H104.606ZM182.906 59.4V49H212.906V61L264.506 67.4V105H215.306L211.306 101L207.226 105H192.906V59.4H182.906ZM212.906 94.6H244.506V75L212.906 71V94.6ZM271.734 73V62.6H352.534V83.8L301.734 91V94.6H332.534V91L352.534 89V105H281.734V73H271.734ZM301.734 80.68L332.534 76.6V73H301.734V80.68ZM359.703 73V62.6H384.023L388.103 66.6L392.103 62.6H432.503V80.2L412.503 78.2V73H389.703V105H369.703V73H359.703ZM442.138 105V89L462.138 91V94.6H492.938V91L442.138 83.8V62.6H512.938V78.6L492.938 76.6V73H462.138V76.2L512.938 83.4V105H442.138ZM527.372 105V49H547.372V61L598.972 67.4V105H578.972V75L547.372 71V105H527.372ZM670.25 73V62.6H680.25V49H700.25V62.6H719.85V73H700.25V92.2L705.05 94.6H735.85V105H699.85L680.25 95.4V73H670.25Z" fill="url(#paint0_linear_51_61)"/>
<path d="M4 60.36H0V64.36H4V60.36ZM4 49V45H0V49H4ZM99.04 49H103.04V45H99.04V49ZM99.04 69.64L98.4935 73.6025L103.04 74.2296V69.64H99.04ZM78.16 66.76H74.16V70.2461L77.6135 70.7225L78.16 66.76ZM78.16 60.36H82.16V56.36H78.16V60.36ZM36.8 60.36V56.36H32.8V60.36H36.8ZM36.8 93.64H32.8V97.64H36.8V93.64ZM78.16 93.64V97.64H82.16V93.64H78.16ZM78.16 87.24L77.6135 83.2775L74.16 83.7539V87.24H78.16ZM99.04 84.36H103.04V79.7704L98.4935 80.3975L99.04 84.36ZM99.04 105V109H103.04V105H99.04ZM15.92 105H11.92V109H15.92V105ZM15.92 60.36H19.92V56.36H15.92V60.36ZM4 60.36H8V49H4H0V60.36H4ZM4 49V53H99.04V49V45H4V49ZM99.04 49H95.04V69.64H99.04H103.04V49H99.04ZM99.04 69.64L99.5866 65.6775L78.7066 62.7975L78.16 66.76L77.6135 70.7225L98.4935 73.6025L99.04 69.64ZM78.16 66.76H82.16V60.36H78.16H74.16V66.76H78.16ZM78.16 60.36V56.36H36.8V60.36V64.36H78.16V60.36ZM36.8 60.36H32.8V93.64H36.8H40.8V60.36H36.8ZM36.8 93.64V97.64H78.16V93.64V89.64H36.8V93.64ZM78.16 93.64H82.16V87.24H78.16H74.16V93.64H78.16ZM78.16 87.24L78.7066 91.2025L99.5866 88.3225L99.04 84.36L98.4935 80.3975L77.6135 83.2775L78.16 87.24ZM99.04 84.36H95.04V105H99.04H103.04V84.36H99.04ZM99.04 105V101H15.92V105V109H99.04V105ZM15.92 105H19.92V60.36H15.92H11.92V105H15.92ZM15.92 60.36V56.36H4V60.36V64.36H15.92V60.36ZM104.606 73H100.606V77H104.606V73ZM104.606 62.6V58.6H100.606V62.6H104.606ZM128.206 62.6L131.325 60.0955L130.124 58.6H128.206V62.6ZM149.406 89L146.287 91.5045L149.744 95.8091L152.758 91.1835L149.406 89ZM166.606 62.6V58.6H164.438L163.255 60.4165L166.606 62.6ZM187.806 62.6L191.127 64.8297L195.31 58.6H187.806V62.6ZM150.206 118.6V122.6H152.339L153.527 120.83L150.206 118.6ZM125.406 118.6H121.406V122.6H125.406V118.6ZM125.406 108.2V104.2H121.406V108.2H125.406ZM135.806 108.2V112.2H137.902L139.095 110.477L135.806 108.2ZM139.406 103L142.695 105.277L144.433 102.766L142.469 100.427L139.406 103ZM114.206 73L117.269 70.4272L116.07 69H114.206V73ZM104.606 73H108.606V62.6H104.606H100.606V73H104.606ZM104.606 62.6V66.6H128.206V62.6V58.6H104.606V62.6ZM128.206 62.6L125.087 65.1045L146.287 91.5045L149.406 89L152.525 86.4955L131.325 60.0955L128.206 62.6ZM149.406 89L152.758 91.1835L169.958 64.7835L166.606 62.6L163.255 60.4165L146.055 86.8165L149.406 89ZM166.606 62.6V66.6H187.806V62.6V58.6H166.606V62.6ZM187.806 62.6L184.485 60.3703L146.885 116.37L150.206 118.6L153.527 120.83L191.127 64.8297L187.806 62.6ZM150.206 118.6V114.6H125.406V118.6V122.6H150.206V118.6ZM125.406 118.6H129.406V108.2H125.406H121.406V118.6H125.406ZM125.406 108.2V112.2H135.806V108.2V104.2H125.406V108.2ZM135.806 108.2L139.095 110.477L142.695 105.277L139.406 103L136.117 100.723L132.517 105.923L135.806 108.2ZM139.406 103L142.469 100.427L117.269 70.4272L114.206 73L111.143 75.5728L136.343 105.573L139.406 103ZM114.206 73V69H104.606V73V77H114.206V73ZM182.906 59.4H178.906V63.4H182.906V59.4ZM182.906 49V45H178.906V49H182.906ZM212.906 49H216.906V45H212.906V49ZM212.906 61H208.906V64.5345L212.414 64.9696L212.906 61ZM264.506 67.4H268.506V63.8655L264.999 63.4304L264.506 67.4ZM264.506 105V109H268.506V105H264.506ZM215.306 105L212.478 107.828L213.649 109H215.306V105ZM211.306 101L214.135 98.1716L211.334 95.371L208.506 98.1437L211.306 101ZM207.226 105V109H208.86L210.027 107.856L207.226 105ZM192.906 105H188.906V109H192.906V105ZM192.906 59.4H196.906V55.4H192.906V59.4ZM212.906 94.6H208.906V98.6H212.906V94.6ZM244.506 94.6V98.6H248.506V94.6H244.506ZM244.506 75H248.506V71.4744L245.009 71.0317L244.506 75ZM212.906 71L213.409 67.0317L208.906 66.4618V71H212.906ZM182.906 59.4H186.906V49H182.906H178.906V59.4H182.906ZM182.906 49V53H212.906V49V45H182.906V49ZM212.906 49H208.906V61H212.906H216.906V49H212.906ZM212.906 61L212.414 64.9696L264.014 71.3696L264.506 67.4L264.999 63.4304L213.399 57.0304L212.906 61ZM264.506 67.4H260.506V105H264.506H268.506V67.4H264.506ZM264.506 105V101H215.306V105V109H264.506V105ZM215.306 105L218.135 102.172L214.135 98.1716L211.306 101L208.478 103.828L212.478 107.828L215.306 105ZM211.306 101L208.506 98.1437L204.426 102.144L207.226 105L210.027 107.856L214.107 103.856L211.306 101ZM207.226 105V101H192.906V105V109H207.226V105ZM192.906 105H196.906V59.4H192.906H188.906V105H192.906ZM192.906 59.4V55.4H182.906V59.4V63.4H192.906V59.4ZM212.906 94.6V98.6H244.506V94.6V90.6H212.906V94.6ZM244.506 94.6H248.506V75H244.506H240.506V94.6H244.506ZM244.506 75L245.009 71.0317L213.409 67.0317L212.906 71L212.404 74.9683L244.004 78.9683L244.506 75ZM212.906 71H208.906V94.6H212.906H216.906V71H212.906ZM271.734 73H267.734V77H271.734V73ZM271.734 62.6V58.6H267.734V62.6H271.734ZM352.534 62.6H356.534V58.6H352.534V62.6ZM352.534 83.8L353.096 87.7604L356.534 87.273V83.8H352.534ZM301.734 91L301.173 87.0396L297.734 87.527V91H301.734ZM301.734 94.6H297.734V98.6H301.734V94.6ZM332.534 94.6V98.6H336.534V94.6H332.534ZM332.534 91L332.136 87.0199L328.534 87.38V91H332.534ZM352.534 89H356.534V84.58L352.136 85.0199L352.534 89ZM352.534 105V109H356.534V105H352.534ZM281.734 105H277.734V109H281.734V105ZM281.734 73H285.734V69H281.734V73ZM301.734 80.68H297.734V85.2448L302.26 84.6454L301.734 80.68ZM332.534 76.6L333.06 80.5654L336.534 80.1051V76.6H332.534ZM332.534 73H336.534V69H332.534V73ZM301.734 73V69H297.734V73H301.734ZM271.734 73H275.734V62.6H271.734H267.734V73H271.734ZM271.734 62.6V66.6H352.534V62.6V58.6H271.734V62.6ZM352.534 62.6H348.534V83.8H352.534H356.534V62.6H352.534ZM352.534 83.8L351.973 79.8396L301.173 87.0396L301.734 91L302.296 94.9604L353.096 87.7604L352.534 83.8ZM301.734 91H297.734V94.6H301.734H305.734V91H301.734ZM301.734 94.6V98.6H332.534V94.6V90.6H301.734V94.6ZM332.534 94.6H336.534V91H332.534H328.534V94.6H332.534ZM332.534 91L332.932 94.9801L352.932 92.9801L352.534 89L352.136 85.0199L332.136 87.0199L332.534 91ZM352.534 89H348.534V105H352.534H356.534V89H352.534ZM352.534 105V101H281.734V105V109H352.534V105ZM281.734 105H285.734V73H281.734H277.734V105H281.734ZM281.734 73V69H271.734V73V77H281.734V73ZM301.734 80.68L302.26 84.6454L333.06 80.5654L332.534 76.6L332.009 72.6346L301.209 76.7146L301.734 80.68ZM332.534 76.6H336.534V73H332.534H328.534V76.6H332.534ZM332.534 73V69H301.734V73V77H332.534V73ZM301.734 73H297.734V80.68H301.734H305.734V73H301.734ZM359.703 73H355.703V77H359.703V73ZM359.703 62.6V58.6H355.703V62.6H359.703ZM384.023 62.6L386.823 59.7437L385.657 58.6H384.023V62.6ZM388.103 66.6L385.303 69.4563L388.131 72.229L390.932 69.4284L388.103 66.6ZM392.103 62.6V58.6H390.446L389.275 59.7716L392.103 62.6ZM432.503 62.6H436.503V58.6H432.503V62.6ZM432.503 80.2L432.105 84.1801L436.503 84.62V80.2H432.503ZM412.503 78.2H408.503V81.8199L412.105 82.1801L412.503 78.2ZM412.503 73H416.503V69H412.503V73ZM389.703 73V69H385.703V73H389.703ZM389.703 105V109H393.703V105H389.703ZM369.703 105H365.703V109H369.703V105ZM369.703 73H373.703V69H369.703V73ZM359.703 73H363.703V62.6H359.703H355.703V73H359.703ZM359.703 62.6V66.6H384.023V62.6V58.6H359.703V62.6ZM384.023 62.6L381.223 65.4563L385.303 69.4563L388.103 66.6L390.903 63.7437L386.823 59.7437L384.023 62.6ZM388.103 66.6L390.932 69.4284L394.932 65.4284L392.103 62.6L389.275 59.7716L385.275 63.7716L388.103 66.6ZM392.103 62.6V66.6H432.503V62.6V58.6H392.103V62.6ZM432.503 62.6H428.503V80.2H432.503H436.503V62.6H432.503ZM432.503 80.2L432.901 76.2199L412.901 74.2199L412.503 78.2L412.105 82.1801L432.105 84.1801L432.503 80.2ZM412.503 78.2H416.503V73H412.503H408.503V78.2H412.503ZM412.503 73V69H389.703V73V77H412.503V73ZM389.703 73H385.703V105H389.703H393.703V73H389.703ZM389.703 105V101H369.703V105V109H389.703V105ZM369.703 105H373.703V73H369.703H365.703V105H369.703ZM369.703 73V69H359.703V73V77H369.703V73ZM442.138 105H438.138V109H442.138V105ZM442.138 89L442.536 85.0199L438.138 84.58V89H442.138ZM462.138 91H466.138V87.38L462.536 87.0199L462.138 91ZM462.138 94.6H458.138V98.6H462.138V94.6ZM492.938 94.6V98.6H496.938V94.6H492.938ZM492.938 91H496.938V87.527L493.499 87.0396L492.938 91ZM442.138 83.8H438.138V87.273L441.576 87.7604L442.138 83.8ZM442.138 62.6V58.6H438.138V62.6H442.138ZM512.938 62.6H516.938V58.6H512.938V62.6ZM512.938 78.6L512.539 82.5801L516.938 83.0199V78.6H512.938ZM492.938 76.6H488.938V80.2199L492.539 80.5801L492.938 76.6ZM492.938 73H496.938V69H492.938V73ZM462.138 73V69H458.138V73H462.138ZM462.138 76.2H458.138V79.673L461.576 80.1604L462.138 76.2ZM512.938 83.4H516.938V79.927L513.499 79.4396L512.938 83.4ZM512.938 105V109H516.938V105H512.938ZM442.138 105H446.138V89H442.138H438.138V105H442.138ZM442.138 89L441.739 92.9801L461.739 94.9801L462.138 91L462.536 87.0199L442.536 85.0199L442.138 89ZM462.138 91H458.138V94.6H462.138H466.138V91H462.138ZM462.138 94.6V98.6H492.938V94.6V90.6H462.138V94.6ZM492.938 94.6H496.938V91H492.938H488.938V94.6H492.938ZM492.938 91L493.499 87.0396L442.699 79.8396L442.138 83.8L441.576 87.7604L492.376 94.9604L492.938 91ZM442.138 83.8H446.138V62.6H442.138H438.138V83.8H442.138ZM442.138 62.6V66.6H512.938V62.6V58.6H442.138V62.6ZM512.938 62.6H508.938V78.6H512.938H516.938V62.6H512.938ZM512.938 78.6L513.336 74.6199L493.336 72.6198L492.938 76.6L492.539 80.5801L512.539 82.5801L512.938 78.6ZM492.938 76.6H496.938V73H492.938H488.938V76.6H492.938ZM492.938 73V69H462.138V73V77H492.938V73ZM462.138 73H458.138V76.2H462.138H466.138V73H462.138ZM462.138 76.2L461.576 80.1604L512.376 87.3604L512.938 83.4L513.499 79.4396L462.699 72.2396L462.138 76.2ZM512.938 83.4H508.938V105H512.938H516.938V83.4H512.938ZM512.938 105V101H442.138V105V109H512.938V105ZM527.372 105H523.372V109H527.372V105ZM527.372 49V45H523.372V49H527.372ZM547.372 49H551.372V45H547.372V49ZM547.372 61H543.372V64.5345L546.88 64.9696L547.372 61ZM598.972 67.4H602.972V63.8655L599.464 63.4304L598.972 67.4ZM598.972 105V109H602.972V105H598.972ZM578.972 105H574.972V109H578.972V105ZM578.972 75H582.972V71.4744L579.474 71.0317L578.972 75ZM547.372 71L547.874 67.0317L543.372 66.4618V71H547.372ZM547.372 105V109H551.372V105H547.372ZM527.372 105H531.372V49H527.372H523.372V105H527.372ZM527.372 49V53H547.372V49V45H527.372V49ZM547.372 49H543.372V61H547.372H551.372V49H547.372ZM547.372 61L546.88 64.9696L598.48 71.3696L598.972 67.4L599.464 63.4304L547.864 57.0304L547.372 61ZM598.972 67.4H594.972V105H598.972H602.972V67.4H598.972ZM598.972 105V101H578.972V105V109H598.972V105ZM578.972 105H582.972V75H578.972H574.972V105H578.972ZM578.972 75L579.474 71.0317L547.874 67.0317L547.372 71L546.87 74.9683L578.47 78.9683L578.972 75ZM547.372 71H543.372V105H547.372H551.372V71H547.372ZM547.372 105V101H527.372V105V109H547.372V105ZM670.25 73H666.25V77H670.25V73ZM670.25 62.6V58.6H666.25V62.6H670.25ZM680.25 62.6V66.6H684.25V62.6H680.25ZM680.25 49V45H676.25V49H680.25ZM700.25 49H704.25V45H700.25V49ZM700.25 62.6H696.25V66.6H700.25V62.6ZM719.85 62.6H723.85V58.6H719.85V62.6ZM719.85 73V77H723.85V73H719.85ZM700.25 73V69H696.25V73H700.25ZM700.25 92.2H696.25V94.6721L698.461 95.7777L700.25 92.2ZM705.05 94.6L703.261 98.1777L704.106 98.6H705.05V94.6ZM735.85 94.6H739.85V90.6H735.85V94.6ZM735.85 105V109H739.85V105H735.85ZM699.85 105L698.091 108.592L698.923 109H699.85V105ZM680.25 95.4H676.25V97.8948L678.491 98.9923L680.25 95.4ZM680.25 73H684.25V69H680.25V73ZM670.25 73H674.25V62.6H670.25H666.25V73H670.25ZM670.25 62.6V66.6H680.25V62.6V58.6H670.25V62.6ZM680.25 62.6H684.25V49H680.25H676.25V62.6H680.25ZM680.25 49V53H700.25V49V45H680.25V49ZM700.25 49H696.25V62.6H700.25H704.25V49H700.25ZM700.25 62.6V66.6H719.85V62.6V58.6H700.25V62.6ZM719.85 62.6H715.85V73H719.85H723.85V62.6H719.85ZM719.85 73V69H700.25V73V77H719.85V73ZM700.25 73H696.25V92.2H700.25H704.25V73H700.25ZM700.25 92.2L698.461 95.7777L703.261 98.1777L705.05 94.6L706.839 91.0223L702.039 88.6223L700.25 92.2ZM705.05 94.6V98.6H735.85V94.6V90.6H705.05V94.6ZM735.85 94.6H731.85V105H735.85H739.85V94.6H735.85ZM735.85 105V101H699.85V105V109H735.85V105ZM699.85 105L701.609 101.408L682.009 91.8077L680.25 95.4L678.491 98.9923L698.091 108.592L699.85 105ZM680.25 95.4H684.25V73H680.25H676.25V95.4H680.25ZM680.25 73V69H670.25V73V77H680.25V73Z" fill="#333A40" mask="url(#path-2-outside-1_51_61)"/>
<defs>
<linearGradient id="paint0_linear_51_61" x1="183" y1="36" x2="183" y2="126" gradientUnits="userSpaceOnUse">
<stop offset="0.25" stop-color="white"/>
<stop offset="0.38" stop-color="#A8AFB1"/>
<stop offset="0.5" stop-color="#333A40"/>
<stop offset="0.63" stop-color="#A8AFB1"/>
<stop offset="0.75" stop-color="white"/>
</linearGradient>
</defs>
</svg>
