<svg width="30" height="30" viewBox="0 0 30 30" fill="none" xmlns="http://www.w3.org/2000/svg">
<path d="M30 15C30 23.2843 23.2843 30 15 30C6.71573 30 0 23.2843 0 15C0 6.71573 6.71573 0 15 0C23.2843 0 30 6.71573 30 15Z" fill="#909090"/>
<path d="M15 15.9375C20.5112 15.9375 25.0927 19.9011 26.0586 25.1328C23.3164 28.1239 19.3777 30 15 30C10.6221 30 6.6826 28.1242 3.94043 25.1328C4.90624 19.9011 9.48876 15.9375 15 15.9375Z" fill="white"/>
<path d="M20.625 9.375C20.625 12.4816 18.1066 15 15 15C11.8934 15 9.375 12.4816 9.375 9.375C9.375 6.2684 11.8934 3.75 15 3.75C18.1066 3.75 20.625 6.2684 20.625 9.375Z" fill="white"/>
</svg>
