<svg width="81" height="51" viewBox="0 0 81 51" fill="none" xmlns="http://www.w3.org/2000/svg">
<path d="M4 14.4004V4.00037H28.32L32.4 8.00037L36.4 4.00037H76.8V21.6004L56.8 19.6004V14.4004H34V46.4004H14V14.4004H4Z" fill="url(#paint0_linear_166_92)"/>
<path d="M76.8 4.00037H36.4L32.4 8.00037L28.32 4.00037H4V14.4004H14V46.4004H34V14.4004H56.8V19.6004L76.8 21.6004V4.00037ZM80.7998 26.0205L52.7998 23.2207V18.4004H38V50.4004H10V18.4004H0V0H29.9541L32.3711 2.37109L34.7432 0H80.7998V26.0205Z" fill="#333A40"/>
<defs>
<linearGradient id="paint0_linear_166_92" x1="-196.121" y1="-31.6191" x2="-196.121" y2="75.3629" gradientUnits="userSpaceOnUse">
<stop offset="0.25" stop-color="white"/>
<stop offset="0.38" stop-color="#A8AFB1"/>
<stop offset="0.5" stop-color="#333A40"/>
<stop offset="0.63" stop-color="#A8AFB1"/>
<stop offset="0.75" stop-color="white"/>
</linearGradient>
</defs>
</svg>
