<svg width="492" height="26" viewBox="0 0 492 26" fill="none" xmlns="http://www.w3.org/2000/svg">
<g filter="url(#filter0_d_39_20)">
<path d="M10.82 23.13V5.52H1.99999V1.53H23.6V5.52H14.81V23.13H10.82ZM25.3337 23.13V0.0299999H29.2637V5.73H38.8637C39.6237 5.73 40.3137 5.92 40.9337 6.3C41.5537 6.68 42.0537 7.18 42.4337 7.8C42.8137 8.42 43.0037 9.11 43.0037 9.87V23.13H39.0737V10.02C39.0737 9.92 39.0337 9.84 38.9537 9.78C38.8937 9.7 38.8137 9.66 38.7137 9.66H29.6237C29.5237 9.66 29.4337 9.7 29.3537 9.78C29.2937 9.84 29.2637 9.92 29.2637 10.02V23.13H25.3337ZM48.9434 23.13C48.1834 23.13 47.4934 22.94 46.8734 22.56C46.2534 22.18 45.7534 21.68 45.3734 21.06C44.9934 20.44 44.8034 19.75 44.8034 18.99V9.87C44.8034 9.11 44.9934 8.42 45.3734 7.8C45.7534 7.18 46.2534 6.68 46.8734 6.3C47.4934 5.92 48.1834 5.73 48.9434 5.73H58.3334C59.0934 5.73 59.7834 5.92 60.4034 6.3C61.0434 6.68 61.5434 7.18 61.9034 7.8C62.2834 8.42 62.4734 9.11 62.4734 9.87V16.41H48.7334V18.84C48.7334 18.94 48.7634 19.03 48.8234 19.11C48.9034 19.17 48.9934 19.2 49.0934 19.2H62.4734V23.13H48.9434ZM48.7334 12.87H58.5434V10.02C58.5434 9.92 58.5034 9.84 58.4234 9.78C58.3634 9.7 58.2834 9.66 58.1834 9.66H49.0934C48.9934 9.66 48.9034 9.7 48.8234 9.78C48.7634 9.84 48.7334 9.92 48.7334 10.02V12.87ZM81.2248 23.13L73.3648 1.53H77.5648L82.7848 15.78L88.0048 1.53H91.8748L97.0948 15.78L102.285 1.53H106.515L98.6548 23.13H95.5348L89.9248 7.83L84.3448 23.13H81.2248ZM111.314 23.13C110.554 23.13 109.864 22.94 109.244 22.56C108.624 22.18 108.124 21.68 107.744 21.06C107.364 20.44 107.174 19.75 107.174 18.99V9.87C107.174 9.11 107.364 8.42 107.744 7.8C108.124 7.18 108.624 6.68 109.244 6.3C109.864 5.92 110.554 5.73 111.314 5.73H120.704C121.464 5.73 122.154 5.92 122.774 6.3C123.414 6.68 123.914 7.18 124.274 7.8C124.654 8.42 124.844 9.11 124.844 9.87V18.99C124.844 19.75 124.654 20.44 124.274 21.06C123.914 21.68 123.424 22.18 122.804 22.56C122.184 22.94 121.484 23.13 120.704 23.13H111.314ZM111.464 19.2H120.554C120.654 19.2 120.734 19.17 120.794 19.11C120.874 19.03 120.914 18.94 120.914 18.84V10.02C120.914 9.92 120.874 9.84 120.794 9.78C120.734 9.7 120.654 9.66 120.554 9.66H111.464C111.364 9.66 111.274 9.7 111.194 9.78C111.134 9.84 111.104 9.92 111.104 10.02V18.84C111.104 18.94 111.134 19.03 111.194 19.11C111.274 19.17 111.364 19.2 111.464 19.2ZM126.881 23.13V9.87C126.881 9.11 127.071 8.42 127.451 7.8C127.831 7.18 128.331 6.68 128.951 6.3C129.591 5.92 130.281 5.73 131.021 5.73H140.681V9.66H131.171C131.071 9.66 130.981 9.7 130.901 9.78C130.841 9.84 130.811 9.92 130.811 10.02V23.13H126.881ZM146.45 23.13C145.69 23.13 145 22.94 144.38 22.56C143.76 22.18 143.26 21.68 142.88 21.06C142.5 20.44 142.31 19.75 142.31 18.99V2.38419e-07H146.27V18.84C146.27 18.94 146.3 19.03 146.36 19.11C146.44 19.17 146.53 19.2 146.63 19.2H149.96V23.13H146.45ZM155.589 23.13C154.809 23.13 154.109 22.94 153.489 22.56C152.869 22.18 152.369 21.68 151.989 21.06C151.629 20.44 151.449 19.75 151.449 18.99V9.87C151.449 9.11 151.629 8.42 151.989 7.8C152.369 7.18 152.869 6.68 153.489 6.3C154.109 5.92 154.809 5.73 155.589 5.73H165.219V0.0299999H169.149V23.13H155.589ZM155.769 19.2H164.859C164.959 19.2 165.039 19.17 165.099 19.11C165.179 19.03 165.219 18.94 165.219 18.84V10.02C165.219 9.92 165.179 9.84 165.099 9.78C165.039 9.7 164.959 9.66 164.859 9.66H155.769C155.669 9.66 155.579 9.7 155.499 9.78C155.439 9.84 155.409 9.92 155.409 10.02V18.84C155.409 18.94 155.439 19.03 155.499 19.11C155.579 19.17 155.669 19.2 155.769 19.2ZM188.459 23.13V5.52H179.639V1.53H201.239V5.52H192.449V23.13H188.459ZM205.411 23.13C204.651 23.13 203.961 22.94 203.341 22.56C202.721 22.18 202.221 21.68 201.841 21.06C201.461 20.44 201.271 19.75 201.271 18.99V9.87C201.271 9.11 201.461 8.42 201.841 7.8C202.221 7.18 202.721 6.68 203.341 6.3C203.961 5.92 204.651 5.73 205.411 5.73H214.801C215.561 5.73 216.251 5.92 216.871 6.3C217.511 6.68 218.011 7.18 218.371 7.8C218.751 8.42 218.941 9.11 218.941 9.87V18.99C218.941 19.75 218.751 20.44 218.371 21.06C218.011 21.68 217.521 22.18 216.901 22.56C216.281 22.94 215.581 23.13 214.801 23.13H205.411ZM205.561 19.2H214.651C214.751 19.2 214.831 19.17 214.891 19.11C214.971 19.03 215.011 18.94 215.011 18.84V10.02C215.011 9.92 214.971 9.84 214.891 9.78C214.831 9.7 214.751 9.66 214.651 9.66H205.561C205.461 9.66 205.371 9.7 205.291 9.78C205.231 9.84 205.201 9.92 205.201 10.02V18.84C205.201 18.94 205.231 19.03 205.291 19.11C205.371 19.17 205.461 19.2 205.561 19.2ZM225.001 23.13C224.241 23.13 223.541 22.94 222.901 22.56C222.281 22.18 221.781 21.68 221.401 21.06C221.041 20.44 220.861 19.75 220.861 18.99V5.73H224.791V18.84C224.791 18.94 224.821 19.03 224.881 19.11C224.961 19.17 225.051 19.2 225.151 19.2H234.241C234.341 19.2 234.421 19.17 234.481 19.11C234.561 19.03 234.601 18.94 234.601 18.84V5.73H238.531V18.99C238.531 19.75 238.341 20.44 237.961 21.06C237.601 21.68 237.111 22.18 236.491 22.56C235.871 22.94 235.171 23.13 234.391 23.13H225.001ZM241.241 23.13V9.87C241.241 9.11 241.431 8.42 241.811 7.8C242.191 7.18 242.691 6.68 243.311 6.3C243.951 5.92 244.641 5.73 245.381 5.73H255.041V9.66H245.531C245.431 9.66 245.341 9.7 245.261 9.78C245.201 9.84 245.171 9.92 245.171 10.02V23.13H241.241ZM256.935 23.13V5.73H270.465C271.225 5.73 271.915 5.92 272.535 6.3C273.175 6.68 273.675 7.18 274.035 7.8C274.415 8.42 274.605 9.11 274.605 9.87V23.13H270.675V10.02C270.675 9.92 270.635 9.84 270.555 9.78C270.495 9.7 270.415 9.66 270.315 9.66H261.225C261.125 9.66 261.035 9.7 260.955 9.78C260.895 9.84 260.865 9.92 260.865 10.02V23.13H256.935ZM281.454 23.13C280.694 23.13 279.994 22.94 279.354 22.56C278.734 22.18 278.234 21.68 277.854 21.06C277.494 20.44 277.314 19.75 277.314 18.99V12.45H291.054V10.02C291.054 9.92 291.014 9.84 290.934 9.78C290.874 9.7 290.794 9.66 290.694 9.66H277.314V5.73H290.844C291.604 5.73 292.294 5.92 292.914 6.3C293.554 6.68 294.054 7.18 294.414 7.8C294.794 8.42 294.984 9.11 294.984 9.87V23.13H281.454ZM281.604 19.2H291.054V15.99H281.244V18.84C281.244 18.94 281.274 19.03 281.334 19.11C281.414 19.17 281.504 19.2 281.604 19.2ZM296.992 23.13V5.73H318.562C319.342 5.73 320.042 5.92 320.662 6.3C321.282 6.68 321.772 7.18 322.132 7.8C322.512 8.42 322.702 9.11 322.702 9.87V23.13H318.802V10.02C318.802 9.92 318.762 9.84 318.682 9.78C318.602 9.7 318.512 9.66 318.412 9.66H312.202C312.102 9.66 312.012 9.7 311.932 9.78C311.872 9.84 311.842 9.92 311.842 10.02V23.13H307.882V10.02C307.882 9.92 307.842 9.84 307.762 9.78C307.702 9.7 307.622 9.66 307.522 9.66H301.282C301.182 9.66 301.092 9.7 301.012 9.78C300.952 9.84 300.922 9.92 300.922 10.02V23.13H296.992ZM329.098 23.13C328.338 23.13 327.648 22.94 327.028 22.56C326.408 22.18 325.908 21.68 325.528 21.06C325.148 20.44 324.958 19.75 324.958 18.99V9.87C324.958 9.11 325.148 8.42 325.528 7.8C325.908 7.18 326.408 6.68 327.028 6.3C327.648 5.92 328.338 5.73 329.098 5.73H338.488C339.248 5.73 339.938 5.92 340.558 6.3C341.198 6.68 341.698 7.18 342.058 7.8C342.438 8.42 342.628 9.11 342.628 9.87V16.41H328.888V18.84C328.888 18.94 328.918 19.03 328.978 19.11C329.058 19.17 329.148 19.2 329.248 19.2H342.628V23.13H329.098ZM328.888 12.87H338.698V10.02C338.698 9.92 338.658 9.84 338.578 9.78C338.518 9.7 338.438 9.66 338.338 9.66H329.248C329.148 9.66 329.058 9.7 328.978 9.78C328.918 9.84 328.888 9.92 328.888 10.02V12.87ZM345.369 23.13V5.73H358.899C359.659 5.73 360.349 5.92 360.969 6.3C361.609 6.68 362.109 7.18 362.469 7.8C362.849 8.42 363.039 9.11 363.039 9.87V23.13H359.109V10.02C359.109 9.92 359.069 9.84 358.989 9.78C358.929 9.7 358.849 9.66 358.749 9.66H349.659C349.559 9.66 349.469 9.7 349.389 9.78C349.329 9.84 349.299 9.92 349.299 10.02V23.13H345.369ZM369.918 23.13C369.158 23.13 368.468 22.94 367.848 22.56C367.228 22.18 366.728 21.68 366.348 21.06C365.968 20.44 365.778 19.75 365.778 18.99V0.390001H369.708V5.73H376.488V9.66H369.708V18.84C369.708 18.94 369.738 19.03 369.798 19.11C369.878 19.17 369.968 19.2 370.068 19.2H376.488V23.13H369.918ZM391.372 23.13C390.612 23.13 389.912 22.94 389.272 22.56C388.652 22.18 388.152 21.68 387.772 21.06C387.392 20.42 387.202 19.72 387.202 18.96V17.31H391.162V18.78C391.162 18.88 391.192 18.97 391.252 19.05C391.332 19.11 391.422 19.14 391.522 19.14H404.452C404.552 19.14 404.632 19.11 404.692 19.05C404.772 18.97 404.812 18.88 404.812 18.78V14.67C404.812 14.57 404.772 14.49 404.692 14.43C404.632 14.37 404.552 14.34 404.452 14.34H391.372C390.612 14.34 389.912 14.15 389.272 13.77C388.652 13.39 388.152 12.89 387.772 12.27C387.392 11.63 387.202 10.92 387.202 10.14V5.7C387.202 4.94 387.392 4.25 387.772 3.63C388.152 2.99 388.652 2.48 389.272 2.1C389.912 1.72 390.612 1.53 391.372 1.53H404.632C405.392 1.53 406.082 1.72 406.702 2.1C407.342 2.48 407.852 2.99 408.232 3.63C408.612 4.25 408.802 4.94 408.802 5.7V7.35H404.812V5.88C404.812 5.78 404.772 5.7 404.692 5.64C404.632 5.56 404.552 5.52 404.452 5.52H391.522C391.422 5.52 391.332 5.56 391.252 5.64C391.192 5.7 391.162 5.78 391.162 5.88V9.99C391.162 10.09 391.192 10.17 391.252 10.23C391.332 10.29 391.422 10.32 391.522 10.32H404.632C405.392 10.32 406.082 10.51 406.702 10.89C407.342 11.27 407.852 11.78 408.232 12.42C408.612 13.04 408.802 13.74 408.802 14.52V18.96C408.802 19.72 408.612 20.42 408.232 21.06C407.852 21.68 407.342 22.18 406.702 22.56C406.082 22.94 405.392 23.13 404.632 23.13H391.372ZM415.617 23.13C414.857 23.13 414.167 22.94 413.547 22.56C412.927 22.18 412.427 21.68 412.047 21.06C411.667 20.44 411.477 19.75 411.477 18.99V9.87C411.477 9.11 411.667 8.42 412.047 7.8C412.427 7.18 412.927 6.68 413.547 6.3C414.167 5.92 414.857 5.73 415.617 5.73H425.007C425.767 5.73 426.457 5.92 427.077 6.3C427.717 6.68 428.217 7.18 428.577 7.8C428.957 8.42 429.147 9.11 429.147 9.87V16.41H415.407V18.84C415.407 18.94 415.437 19.03 415.497 19.11C415.577 19.17 415.667 19.2 415.767 19.2H429.147V23.13H415.617ZM415.407 12.87H425.217V10.02C425.217 9.92 425.177 9.84 425.097 9.78C425.037 9.7 424.957 9.66 424.857 9.66H415.767C415.667 9.66 415.577 9.7 415.497 9.78C415.437 9.84 415.407 9.92 415.407 10.02V12.87ZM431.653 23.13V9.87C431.653 9.11 431.843 8.42 432.223 7.8C432.603 7.18 433.103 6.68 433.723 6.3C434.363 5.92 435.053 5.73 435.793 5.73H445.453V9.66H435.943C435.843 9.66 435.753 9.7 435.673 9.78C435.613 9.84 435.583 9.92 435.583 10.02V23.13H431.653ZM447.287 23.13V5.73H451.217V23.13H447.287ZM447.287 3.99V0.0299999H451.217V3.99H447.287ZM457.802 23.13C457.042 23.13 456.352 22.94 455.732 22.56C455.112 22.18 454.612 21.68 454.232 21.06C453.852 20.44 453.662 19.75 453.662 18.99V9.87C453.662 9.11 453.852 8.42 454.232 7.8C454.612 7.18 455.112 6.68 455.732 6.3C456.352 5.92 457.042 5.73 457.802 5.73H467.192C467.952 5.73 468.642 5.92 469.262 6.3C469.902 6.68 470.402 7.18 470.762 7.8C471.142 8.42 471.332 9.11 471.332 9.87V16.41H457.592V18.84C457.592 18.94 457.622 19.03 457.682 19.11C457.762 19.17 457.852 19.2 457.952 19.2H471.332V23.13H457.802ZM457.592 12.87H467.402V10.02C467.402 9.92 467.362 9.84 467.282 9.78C467.222 9.7 467.142 9.66 467.042 9.66H457.952C457.852 9.66 457.762 9.7 457.682 9.78C457.622 9.84 457.592 9.92 457.592 10.02V12.87ZM477.829 23.13C477.069 23.13 476.379 22.94 475.759 22.56C475.139 22.18 474.639 21.68 474.259 21.06C473.879 20.44 473.689 19.75 473.689 18.99V18.33H477.619V18.84C477.619 18.94 477.649 19.03 477.709 19.11C477.789 19.17 477.879 19.2 477.979 19.2H487.069C487.169 19.2 487.249 19.17 487.309 19.11C487.389 19.03 487.429 18.94 487.429 18.84V16.77C487.429 16.67 487.389 16.59 487.309 16.53C487.249 16.45 487.169 16.41 487.069 16.41H477.829C477.069 16.41 476.379 16.22 475.759 15.84C475.139 15.46 474.639 14.96 474.259 14.34C473.879 13.72 473.689 13.03 473.689 12.27V9.87C473.689 9.11 473.879 8.42 474.259 7.8C474.639 7.18 475.139 6.68 475.759 6.3C476.379 5.92 477.069 5.73 477.829 5.73H487.219C487.999 5.73 488.699 5.92 489.319 6.3C489.939 6.68 490.439 7.18 490.819 7.8C491.199 8.42 491.389 9.11 491.389 9.87V10.53H487.429V10.02C487.429 9.92 487.389 9.84 487.309 9.78C487.249 9.7 487.169 9.66 487.069 9.66H477.979C477.879 9.66 477.789 9.7 477.709 9.78C477.649 9.84 477.619 9.92 477.619 10.02V12.09C477.619 12.19 477.649 12.28 477.709 12.36C477.789 12.42 477.879 12.45 477.979 12.45H487.219C487.999 12.45 488.699 12.64 489.319 13.02C489.939 13.4 490.439 13.9 490.819 14.52C491.199 15.14 491.389 15.83 491.389 16.59V18.99C491.389 19.75 491.199 20.44 490.819 21.06C490.439 21.68 489.939 22.18 489.319 22.56C488.699 22.94 487.999 23.13 487.219 23.13H477.829Z" fill="white"/>
</g>
<defs>
<filter id="filter0_d_39_20" x="0" y="0" width="491.389" height="25.13" filterUnits="userSpaceOnUse" color-interpolation-filters="sRGB">
<feFlood flood-opacity="0" result="BackgroundImageFix"/>
<feColorMatrix in="SourceAlpha" type="matrix" values="0 0 0 0 0 0 0 0 0 0 0 0 0 0 0 0 0 0 127 0" result="hardAlpha"/>
<feOffset dx="-2" dy="2"/>
<feComposite in2="hardAlpha" operator="out"/>
<feColorMatrix type="matrix" values="0 0 0 0 0.565073 0 0 0 0 0.565073 0 0 0 0 0.565073 0 0 0 1 0"/>
<feBlend mode="normal" in2="BackgroundImageFix" result="effect1_dropShadow_39_20"/>
<feBlend mode="normal" in="SourceGraphic" in2="effect1_dropShadow_39_20" result="shape"/>
</filter>
</defs>
</svg>
