<svg width="93" height="64" viewBox="0 0 93 64" fill="none" xmlns="http://www.w3.org/2000/svg">
<path d="M3.99982 14.4004V4.00037H27.5998L48.7998 30.4004L65.9998 4.00037H87.1998L49.5998 60.0004H24.7998V49.6004H35.1998L38.7998 44.4004L13.5998 14.4004H3.99982Z" fill="url(#paint0_linear_166_89)"/>
<path d="M29.5176 0L48.4619 23.5908L63.832 0H82.2998V0.800781H92.2998V3.5791L51.7324 64H20.7998V45.6006H33.1035L33.7725 44.6338L11.7354 18.4004H0V0H29.5176ZM3.99982 14.4004H13.5998L38.7998 44.4004L35.1998 49.6004H24.7998V60.0004H49.5998L87.1998 4.00037H65.9998L48.7998 30.4004L27.5998 4.00037H3.99982V14.4004Z" fill="#333A40"/>
<defs>
<linearGradient id="paint0_linear_166_89" x1="86.9679" y1="-30.4" x2="86.9679" y2="72.4571" gradientUnits="userSpaceOnUse">
<stop offset="0.25" stop-color="white"/>
<stop offset="0.38" stop-color="#A8AFB1"/>
<stop offset="0.5" stop-color="#333A40"/>
<stop offset="0.63" stop-color="#A8AFB1"/>
<stop offset="0.75" stop-color="white"/>
</linearGradient>
</defs>
</svg>
