<svg width="90" height="64" viewBox="0 0 90 64" fill="none" xmlns="http://www.w3.org/2000/svg">
<path d="M4 14.4V4H34V16L85.6 22.4V60H36.4L32.4 56L28.32 60H14V14.4H4ZM34 49.6H65.6V30L34 26V49.6Z" fill="url(#paint0_linear_166_90)"/>
<path d="M85.6 22.4L34 16V4H4V17.5996H0V0H38V12.4648L89.5996 18.8652V64H34.7432L32.3721 61.6289L29.9541 64H10V18.4004H8.3623L8.90039 17.5996H4V14.4H14V60H28.32L32.4 56L36.4 60H85.6V22.4ZM65.6 30V49.6H34V26L65.6 30ZM38 45.5996H61.5996V33.5254L38 30.5381V45.5996Z" fill="#333A40"/>
<defs>
<linearGradient id="paint0_linear_166_90" x1="0.102963" y1="-14.8571" x2="0.102965" y2="88" gradientUnits="userSpaceOnUse">
<stop offset="0.25" stop-color="white"/>
<stop offset="0.38" stop-color="#A8AFB1"/>
<stop offset="0.5" stop-color="#333A40"/>
<stop offset="0.63" stop-color="#A8AFB1"/>
<stop offset="0.75" stop-color="white"/>
</linearGradient>
</defs>
</svg>
