<svg width="74" height="64" viewBox="0 0 74 64" fill="none" xmlns="http://www.w3.org/2000/svg">
<path d="M4 28V17.6H14V4H34V17.6H53.6V28H34V47.2L38.8 49.6H69.6V60H33.6L14 50.4V28H4Z" fill="url(#paint0_linear_166_95)"/>
<path d="M14 4V17.6H4V28H14V50.4L33.6 60H69.6V49.6H38.8L34 47.2V28H53.6V17.6H34V4H14ZM38 13.5996H57.5996V32H38V44.7275L39.7432 45.5996H73.5996V64H32.6729L10 52.8945V32H0V13.5996H10V0H38V13.5996Z" fill="#333A40"/>
<defs>
<linearGradient id="paint0_linear_166_95" x1="-546.668" y1="-14.8571" x2="-546.668" y2="88" gradientUnits="userSpaceOnUse">
<stop offset="0.25" stop-color="white"/>
<stop offset="0.38" stop-color="#A8AFB1"/>
<stop offset="0.5" stop-color="#333A40"/>
<stop offset="0.63" stop-color="#A8AFB1"/>
<stop offset="0.75" stop-color="white"/>
</linearGradient>
</defs>
</svg>
