<svg width="89" height="51" viewBox="0 0 89 51" fill="none" xmlns="http://www.w3.org/2000/svg">
<path d="M4 14.4004V4.00037H84.8V25.2004L34 32.4004V36.0004H64.8V32.4004L84.8 30.4004V46.4004H14V14.4004H4ZM34 22.0804L64.8 18.0004V14.4004H34V22.0804Z" fill="url(#paint0_linear_166_91)"/>
<path d="M64.8 14.4004V18.0004L34 22.0804V14.4004H64.8ZM4 4.00037V14.4004H14V46.4004H84.8V30.4004L64.8 32.4004V36.0004H34V32.4004L84.8 25.2004V4.00037H4ZM88.7998 50.4004H10V18.4004H0V0H88.7998V50.4004Z" fill="#333A40"/>
<defs>
<linearGradient id="paint0_linear_166_91" x1="-97.5197" y1="-31.6191" x2="-97.5197" y2="75.3628" gradientUnits="userSpaceOnUse">
<stop offset="0.25" stop-color="white"/>
<stop offset="0.38" stop-color="#A8AFB1"/>
<stop offset="0.5" stop-color="#333A40"/>
<stop offset="0.63" stop-color="#A8AFB1"/>
<stop offset="0.75" stop-color="white"/>
</linearGradient>
</defs>
</svg>
